# xmcd
#
# Track frame offsets: 
#        150
#        13793
#        24562
#        34413
#        49772
#        64988
#        77865
#        95311
#        108298
#        119289
#        134778
#        150539
#
# Disc length: 2278 seconds
#
# Revision: 1
# Processed by: cddbd v1.5.2PL0 Copyright (c) Steve Scherf et al.
# Submitted via: ExactAudioCopyFreeDBPlugin 1.0
#
DISCID=a008e40c
DTITLE=Kacey Musgraves - A Very Kacey Christmas
DYEAR=2016
DGENRE=Christmas
TTITLE0=Have Yourself A Merry Little Christmas
TTITLE1=Kacey Musgraves (feat. The Quebe Sisters) - Let It Snow
TTITLE2=Christmas Don't Be Late
TTITLE3=Kacey Musgraves (feat. Willie Nelson) - A Willie Nice Christma
TTITLE3=s
TTITLE4=Feliz Navidad
TTITLE5=Christmas Makes Me Cry
TTITLE6=Kacey Musgraves (Feat. Leon Bridges) - Present Without A Bow
TTITLE7=Kacey Musgraves (feat. The Quebe Sisters) - Mele Kalikimaka
TTITLE8=I Want A Hippopotamus For Christmas
TTITLE9=Rudolph The Red-Nosed Reindeer
TTITLE10=Ribbons And Bows
TTITLE11=Whar Are You Doing New Year's Eve?
EXTD=
EXTT0=
EXTT1=
EXTT2=
EXTT3=
EXTT4=
EXTT5=
EXTT6=
EXTT7=
EXTT8=
EXTT9=
EXTT10=
EXTT11=
PLAYORDER=
